inDegrees=no
num_controls=7
num_derivatives=13
num_iterations=100
num_multipliers=7
num_parameters=0
num_slacks=7
num_states=26
objective=5.377006
objective_accelerations=0.778656
objective_balance=0.039181
objective_effort=0.251148
objective_height=4.280926
objective_ligament=0.027094
solver_duration=1108.924624
status=Solve_Succeeded
success=true
DataType=double
version=3
OpenSimVersion=4.4-2022-07-23-0e9fedc
endheader
time	/jointset/ground_pelvis/pelvis_tilt/value	/jointset/ground_pelvis/pelvis_tx/value	/jointset/ground_pelvis/pelvis_ty/value	/jointset/hip_l/hip_flexion_l/value	/jointset/hip_l/hip_adduction_l/value	/jointset/hip_l/hip_rotation_l/value	/jointset/back/lumbar_extension/value	/jointset/patellofemoral_l/patellar_flexion_l/value	/jointset/knee_l/knee_flexion_l/value	/jointset/knee_l/knee_adduction_l/value	/jointset/knee_l/knee_rotation_l/value	/jointset/ankle_l/ankle_angle_l/value	/jointset/subtalar_l/subtalar_angle_l/value	/jointset/ground_pelvis/pelvis_tilt/speed	/jointset/ground_pelvis/pelvis_tx/speed	/jointset/ground_pelvis/pelvis_ty/speed	/jointset/hip_l/hip_flexion_l/speed	/jointset/hip_l/hip_adduction_l/speed	/jointset/hip_l/hip_rotation_l/speed	/jointset/back/lumbar_extension/speed	/jointset/patellofemoral_l/patellar_flexion_l/speed	/jointset/knee_l/knee_flexion_l/speed	/jointset/knee_l/knee_adduction_l/speed	/jointset/knee_l/knee_rotation_l/speed	/jointset/ankle_l/ankle_angle_l/speed	/jointset/subtalar_l/subtalar_angle_l/speed	/forceset/tau_hip_flexion_l	/forceset/tau_hip_adduction_l	/forceset/tau_hip_rotation_l	/forceset/tau_knee_flexion_l	/forceset/tau_ankle_angle_l	/forceset/tau_subtalar_angle_l	/forceset/tau_lumbar_extension	lambda_cid13_p0	lambda_cid13_p1	lambda_cid13_p2	lambda_cid13_p3	lambda_cid13_p4	lambda_cid13_p5	lambda_cid14_p0	/jointset/ground_pelvis/pelvis_tilt/accel	/jointset/ground_pelvis/pelvis_tx/accel	/jointset/ground_pelvis/pelvis_ty/accel	/jointset/hip_l/hip_flexion_l/accel	/jointset/hip_l/hip_adduction_l/accel	/jointset/hip_l/hip_rotation_l/accel	/jointset/back/lumbar_extension/accel	/jointset/patellofemoral_l/patellar_flexion_l/accel	/jointset/knee_l/knee_flexion_l/accel	/jointset/knee_l/knee_adduction_l/accel	/jointset/knee_l/knee_rotation_l/accel	/jointset/ankle_l/ankle_angle_l/accel	/jointset/subtalar_l/subtalar_angle_l/accel	gamma_cid13_p0	gamma_cid13_p1	gamma_cid13_p2	gamma_cid13_p3	gamma_cid13_p4	gamma_cid13_p5	gamma_cid14_p0
1.5	-0.6118546840122484	-0.04804791667258671	0.7752936857377043	1.297432479664828	-0.3670538036956891	-0.07647599406368938	-0.3531943002128417	0.6083186601637621	0.6083186601640548	-0.1028722419223261	-0.1666737063804862	0.01513836050232225	0.05859774745666049	1.211045878688209	0.5063640768635671	0.5243579647159372	-3.045723719405356	-0.005653766263789445	-0.5286916609859956	0.5856862100235276	-1.637260334143192	-1.637260334143341	-0.1964613212214053	0.06741450585861811	0.08047578084700754	0.02321881510723927	-0.2253118637710712	0.01016572483594853	0.02219004093869517	-0.05922024379672265	0.02281515978545037	0.001522247800701117	0.1788480390663575	-17.00616432198916	-0.6629201557877835	3.227941990532245	-6.057618829394314	-430.792932289526	-58.72059617072529	-18.70647636788199	0.9533052977209929	0.937659625814241	-0.603614087158292	-1.996795966151496	0.3964591839749793	-0.1270614798584123	2.070504664716597	-0.7530381170132423	-0.7530381170132492	-0.07760795005172218	0.4199704739202893	0.3163444503771647	0.4954215499970639	2.101693417059439e-08	2.009993543422306e-06	-3.461676170640515e-07	4.011508601310331e-07	5.066714690726923e-07	-3.058915580148044e-07	3.843460476190829e-07
1.51	-0.5996970173058769	-0.0429379707105338	0.7805060056631739	1.266877527291028	-0.3670923591724686	-0.08177139544697391	-0.3472362379638712	0.5919102356316768	0.5919102356318708	-0.1048428150648302	-0.1659823504197563	0.01595841901075199	0.05885272368162146	1.220299222857514	0.515548111746405	0.5179871985433057	-3.064838368227288	-0.002053390228126511	-0.5303165309715167	0.6058432073041533	-1.64420885870002	-1.644208858700016	-0.1976332764297939	0.07086961939502831	0.08353036133240496	0.02777938948383809	-0.2178559359517888	0.008874405878829953	0.02275033697672086	-0.05758500742626392	0.01921821820322279	0.0004167905725787653	0.173394545356983	-17.99562030613096	-0.2099749131176755	3.384636476188649	-5.078754648433068	-426.3245936915434	-58.55071738902698	-19.27544409786776	0.8831470206739889	0.8973104403812353	-0.671526645318867	-1.804498743030325	0.3420888302379588	-0.1690724572774626	1.975842389429277	-0.6334792235123456	-0.6334792234891439	-0.1335807147821056	0.3100628245352801	0.2992304543625634	0.4365202080534431	6.425433289743464e-09	2.090772540463388e-06	-3.172786440876198e-07	4.188436645396096e-07	5.171591507516708e-07	-2.654809574217751e-07	3.835727342323993e-07
1.52	-0.5874524575490039	-0.03773847739547973	0.7856510741743158	1.236144288548451	-0.3670948584855128	-0.08708082006993466	-0.3410790967161558	0.575438781934337	0.5754387819343937	-0.1068244260412773	-0.1652560871174261	0.01680886644538275	0.05915333461566127	1.228424488792393	0.524273547463799	0.5109076818504228	-3.081380993161861	0.001557466482533344	-0.5314963089321729	0.6255020097725223	-1.649866167196636	-1.649866167196479	-0.1986688879801436	0.07439597417279435	0.08655356608746476	0.03234575692293424	-0.2104000081322702	0.007583086921952955	0.02331063301468542	-0.05594977105576088	0.01562127662104835	-0.0006886666552841046	0.1679410516477841	-18.98819391338899	0.243657884627351	3.541060026854966	-4.090744043851415	-421.9015532097861	-58.44146038557111	-19.8259175952065	0.7276896508360329	0.8459397927252463	-0.745364191208654	-1.482391188679679	0.398555318974474	-0.03804307488557038	1.97086570226502	-0.4947949049707352	-0.4947949049707215	-0.05033921844373562	0.4342187221912593	0.310069304309379	0.496580162496524	-1.291577278469658e-08	2.243986925794323e-06	-2.233804581454322e-07	4.467713359388612e-07	5.174584203299096e-07	-2.296759592967812e-07	3.837414161729988e-07
1.53	-0.5751323732708246	-0.03245393631133072	0.7907219263712817	1.205258328014306	-0.367061145678399	-0.09240094638353775	-0.3347279860869264	0.5589172869713034	0.5589172869713462	-0.1088151621523356	-0.164495143010787	0.01768964013429957	0.05949977456488838	1.235389344538304	0.5325654820672848	0.5031545224101592	-3.09538363925989	0.005185993643299297	-0.5324653072242855	0.6446315212012225	-1.654209353656667	-1.654209353656692	-0.1994539524650177	0.07779405724818404	0.08961912890815874	0.03694904631202098	-0.2026834200105421	0.006725996005010142	0.02373984419406401	-0.05520854890186906	0.01381549074301149	-0.002916627022463166	0.1623336125751556	-19.47195144715771	1.124938916628762	3.595910722043218	-3.570545251245138	-417.741544990452	-57.54910748283584	-20.35482924463713	0.6504582107312009	0.8105434680303051	-0.8064268310008312	-1.295044775316141	0.3446923100915753	-0.1164748438495876	1.87070463199582	-0.3706368593830922	-0.3706368594102223	-0.08842857484910814	0.2926693452380728	0.3075556865735753	0.4428143851920118	-3.730354062732498e-08	2.474163911183227e-06	-6.040998342712969e-08	4.855735535157052e-07	5.069325020511123e-07	-1.987644137940749e-07	3.849109681488368e-07
1.54	-0.5627487255003497	-0.02708853124637238	0.7957120199717315	1.174245172328187	-0.3669912094205836	-0.0977287920075636	-0.3281882381896465	0.5423590488750284	0.5423590488751571	-0.1108129166099827	-0.1637002048246478	0.01860162063454619	0.05989236961962177	1.241137187254763	0.5404463436256653	0.4947559625471894	-3.10682002355595	0.008802156622633957	-0.5330401710154328	0.6632294633828517	-1.657214793831248	-1.657214793831455	-0.2000725574034911	0.08119479012459375	0.09279492835381827	0.04157677802420129	-0.1949668318887659	0.005868905088047133	0.02416905537484425	-0.05446732674812382	0.01200970486492802	-0.005144587389692836	0.1567261735026017	-19.95923026377084	2.008656997051653	3.648293886420357	-3.032128916648722	-413.6232107657828	-56.71040702070899	-20.85919357239055	0.4842870449453828	0.7637251837039678	-0.8744442757499528	-0.9691388282859225	0.3960824826882534	0.04078382530733599	1.864551852850624	-0.2272456478804869	-0.2272456478804846	-0.01704730916338285	0.4347486823950999	0.3321166293022742	0.5014686271152615	-5.447082549853064e-08	2.604923784463441e-06	1.601730268307781e-08	5.043024151626806e-07	5.099448653106783e-07	-1.583650618167102e-07	3.828448000600925e-07
